<svg width="225" height="44" viewBox="0 0 225 44" fill="none" xmlns="http://www.w3.org/2000/svg">
<g clip-path="url(#clip0_53_203)">
<path d="M113.286 19.2722V36.4322H107.746V33.7959C105.71 35.7428 102.625 36.7909 99.032 36.7909C92.3837 36.7909 88.6705 33.3477 88.6705 27.178V19.2722H94.2108V26.3999C94.2108 30.7122 96.2168 32.7486 100.5 32.7486C105.052 32.7486 107.746 30.562 107.746 25.1113V19.2722H113.286ZM142.351 14.8105V36.4314H136.812V34.2457C134.895 35.893 131.99 36.7909 128.157 36.7909C120.85 36.7909 116.238 33.5562 116.238 28.0464C116.238 22.4765 120.91 18.9127 127.948 18.9127C131.75 18.9127 134.805 19.9609 136.812 21.8478V14.8097L142.351 14.8105ZM136.812 27.837C136.812 24.6926 134.146 22.9559 129.295 22.9559C124.444 22.9559 121.779 24.6926 121.779 27.837C121.779 30.9814 124.444 32.7486 129.295 32.7486C134.117 32.7486 136.812 30.9814 136.812 27.837ZM169.724 25.5011V36.4314H164.632V33.6769C162.476 35.8027 159.542 36.7909 155.02 36.7909C148.731 36.7909 145.497 34.904 145.497 31.281C145.497 27.7771 148.611 26.1003 155.918 25.7408L164.632 25.2918C164.483 23.734 162.356 22.9559 158.254 22.9559C153.912 22.9559 150.528 23.8538 147.264 25.8902L147.174 25.8303V21.1887C150.528 19.6014 154.361 18.9127 158.613 18.9127C166.07 18.9127 169.724 21.0697 169.724 25.5011ZM164.632 28.9147V28.6455L155.199 29.1544C152.414 29.3046 151.066 29.9038 151.066 31.0414C151.066 32.2093 152.354 32.7486 155.649 32.7486C161.188 32.7486 164.632 31.2507 164.632 28.9147ZM185.805 18.9127C189.579 18.9127 192.873 19.6613 195.957 21.2487V26.28L195.837 26.3096C192.993 24.3331 189.908 23.1955 185.805 23.1955C180.894 23.1955 178.259 24.8125 178.259 27.8674C178.259 30.9215 180.894 32.5089 185.805 32.5089C189.908 32.5089 193.022 31.4009 195.837 29.4244L195.957 29.454V34.455C192.873 36.0424 189.579 36.7909 185.805 36.7909C177.6 36.7909 172.719 33.287 172.719 27.8674C172.719 22.4166 177.6 18.9127 185.805 18.9127ZM224.341 19.3921L211.823 39.4568C209.816 42.6907 207.511 43.9785 203.468 43.9785H202.21V39.9361L202.39 39.8163H202.989C205.714 39.8163 206.582 39.1868 207.87 37.0306L208.215 36.4554L197 19.3921L197.089 19.2722H203.258L210.984 31.3114L218.441 19.2722H224.25L224.341 19.3921ZM82.2747 36.4322H88.3837L75.298 14.8105H69.4278L56.3413 36.4314H62.4504L65.0308 32.0895H79.6951L82.2747 36.4322ZM67.6463 27.6861L72.3629 19.7484L77.0787 27.6861H67.6463ZM22.2746 25.5371C22.2746 31.5071 17.435 36.3475 11.4641 36.3475C5.49485 36.3475 0.653625 31.5071 0.653625 25.5363C0.653625 19.567 5.49406 14.7258 11.4641 14.7258C17.435 14.7258 22.2746 19.567 22.2746 25.5371ZM27.5224 -0.00561523H12.0888L31.592 36.4314H47.0248L27.5224 -0.00561523Z" fill="white"/>
</g>
<defs>
<clipPath id="clip0_53_203">
<rect width="223.687" height="43.9385" fill="white" transform="translate(0.653625 -0.00561523)"/>
</clipPath>
</defs>
</svg>
