<svg width="151" height="43" viewBox="0 0 151 43" fill="none" xmlns="http://www.w3.org/2000/svg">
<g clip-path="url(#clip0_53_197)">
<path d="M121.295 29.2508C121.685 28.3306 121.945 27.6733 122.204 26.753C122.854 24.7811 123.114 22.5463 123.114 20.5743C123.114 20.3114 123.114 19.917 123.114 19.6541C123.114 19.3912 123.114 19.2597 123.114 19.2597C122.854 15.9732 122.204 13.081 120.905 10.5832C120.905 10.3203 120.646 10.1889 120.646 9.92593C117.788 4.66746 112.332 1.118 104.927 0.855072C104.927 0.855072 104.927 0.855072 104.667 0.855072C104.407 0.855072 104.018 0.855072 103.758 0.855072C91.4169 0.855072 84.402 9.66301 84.402 20.8373C84.402 32.0115 91.8066 40.8194 103.758 40.8194C108.175 40.8194 111.812 39.7677 114.8 37.6643L118.957 41.6082L124.803 36.7441L120.126 32.143C120.386 31.0913 121.035 30.171 121.295 29.2508ZM91.1571 20.7058C91.1571 13.8698 96.2234 8.08547 103.498 8.08547C111.163 8.08547 115.839 13.6069 115.839 20.7058C115.839 22.9406 115.449 24.9126 114.54 26.6216L107.525 19.7856L101.679 24.6496L109.344 32.143C107.785 33.0632 105.836 33.4576 103.888 33.4576C95.9636 33.3261 91.1571 27.5418 91.1571 20.7058Z" fill="white"/>
<path d="M25.5549 20.4429V19.7856C28.4129 18.7339 30.6213 15.8417 30.6213 12.0293C30.6213 5.85063 25.8148 1.64386 18.2802 1.64386H1.13275V39.2419H18.7999C26.5942 39.2419 31.6605 35.2981 31.6605 28.8564C31.4007 24.9126 28.9325 21.4946 25.5549 20.4429ZM9.44669 8.47987H16.8513C20.0989 8.47987 22.3073 10.1889 22.3073 12.9496C22.3073 15.5788 20.0989 17.4193 16.8513 17.4193H9.44669V8.47987ZM16.9812 32.8003H9.44669V23.335H17.1111C20.6185 23.335 23.2166 25.307 23.2166 27.9362C23.0867 30.8284 20.4886 32.8003 16.9812 32.8003Z" fill="white"/>
<path d="M47.5089 11.6349C39.4548 11.6349 33.6091 17.4193 33.6091 25.8328C33.6091 34.5093 39.3249 40.4251 47.5089 40.4251C53.6145 40.4251 58.421 37.5329 60.1097 32.6688L53.7444 30.8284C52.7051 33.0632 50.4968 34.6407 47.6388 34.6407C44.0015 34.6407 41.5333 32.143 40.8838 28.462H60.6294C60.6294 27.8047 60.6294 26.753 60.6294 25.9643C61.0191 17.2878 55.5631 11.6349 47.5089 11.6349ZM40.8838 23.335C41.5333 19.7856 43.7417 17.4193 47.2491 17.4193C50.7566 17.4193 53.0949 19.917 53.6145 23.335H40.8838Z" fill="white"/>
<path d="M74.6591 30.434V18.0766H80.7647V12.4237H74.6591V3.87869H68.5536L67.1246 12.4237H63.2275V18.208H66.8648V30.8283C66.8648 36.6127 70.3723 40.2936 75.8283 40.2936C77.3872 40.2936 79.4656 40.0307 81.0245 39.3734V33.852C80.1152 34.1149 79.0759 34.2463 78.1666 34.2463C75.9582 34.1149 74.6591 32.6688 74.6591 30.434Z" fill="white"/>
<path d="M136.104 32.0115V1.90677H127.79V39.5048H149.744V32.0115H136.104Z" fill="white"/>
</g>
<defs>
<clipPath id="clip0_53_197">
<rect width="149.391" height="41.5419" fill="white" transform="translate(0.743042 0.592163)"/>
</clipPath>
</defs>
</svg>
