<svg width="121" height="29" viewBox="0 0 121 29" fill="none" xmlns="http://www.w3.org/2000/svg">
<g clip-path="url(#clip0_53_231)">
<mask id="mask0_53_231" style="mask-type:luminance" maskUnits="userSpaceOnUse" x="0" y="0" width="121" height="29">
<path d="M121 0H0V29H121V0Z" fill="white"/>
</mask>
<g mask="url(#mask0_53_231)">
<path d="M71.6482 11.4387C73.5188 11.4387 75.2901 12.5795 75.6643 15.0437H67.3267C67.6778 12.8837 69.3042 11.4387 71.6482 11.4387ZM75.4046 18.6944C74.7709 19.6832 73.5341 20.4437 71.8543 20.4437C69.5332 20.4437 67.7619 19.1736 67.3343 16.9375H77.7944C77.8479 16.618 77.8708 16.2911 77.8708 15.964C77.8708 12.4806 75.4276 9.40039 71.6558 9.40039C67.7619 9.40039 65.1125 12.2602 65.1125 15.9412C65.1125 19.6679 67.7847 22.482 71.8008 22.482C74.2975 22.482 76.1911 21.364 77.2905 19.6755L75.4046 18.6944Z" fill="#006BFF"/>
<path d="M64.0818 4.00049H61.9133V22.1549H64.0818V4.00049Z" fill="#006BFF"/>
<path d="M89.9496 14.519V22.155H87.7812V14.6483C87.7812 12.6101 86.6054 11.4616 84.689 11.4616C82.6886 11.4616 81.0699 12.6328 81.0699 15.561V22.1473H78.9016V9.71232H81.0699V11.4996C81.9938 10.0317 83.3681 9.38525 85.1166 9.38525C88.0255 9.40048 89.9496 11.3399 89.9496 14.519Z" fill="#006BFF"/>
<path d="M101.929 15.9412C101.929 13.401 100.005 11.492 97.4851 11.492C94.9886 11.492 93.0645 13.4086 93.0645 15.9412C93.0645 18.4739 94.9886 20.3905 97.4851 20.3905C100.005 20.3905 101.929 18.4739 101.929 15.9412ZM104.097 4.00049V22.155H101.929V20.0178C100.929 21.5313 99.3328 22.482 97.2103 22.482C93.7441 22.482 90.8964 19.6223 90.8964 15.9412C90.8964 12.2602 93.7441 9.40048 97.2103 9.40048C99.3328 9.40048 100.929 10.3435 101.929 11.8647V4.0081H104.097V4.00049Z" fill="#006BFF"/>
<path d="M108.015 4.00049H105.846V22.1549H108.015V4.00049Z" fill="#006BFF"/>
<path d="M58.0423 15.9412C58.0423 13.4009 56.1183 11.4919 53.5987 11.4919C51.102 11.4919 49.1779 13.4086 49.1779 15.9412C49.1779 18.4739 51.102 20.3905 53.5987 20.3905C56.1183 20.3905 58.0423 18.4739 58.0423 15.9412ZM60.2107 9.71984V22.155H58.0423V20.0177C57.0421 21.5313 55.4464 22.482 53.3238 22.482C49.8574 22.482 47.0096 19.6223 47.0096 15.9412C47.0096 12.2602 49.8574 9.40039 53.3238 9.40039C55.4464 9.40039 57.0421 10.3435 58.0423 11.8646V9.72746H60.2107V9.71984Z" fill="#006BFF"/>
<path d="M43.7875 19.7668C42.6881 20.1699 41.4893 20.284 40.3212 20.0863C38.5422 19.7897 36.9846 18.8162 35.9386 17.3482C34.8926 15.8804 34.4803 14.1007 34.778 12.3286C35.0758 10.5565 36.0532 9.00492 37.5267 7.96297C39.0003 6.92101 40.7869 6.51031 42.5659 6.81452C43.7341 7.01227 44.8259 7.50665 45.7345 8.25201C46.1163 8.56385 46.4598 8.92127 46.7652 9.30915L48.6435 7.94015C48.2235 7.39255 47.7425 6.8906 47.2157 6.46468C45.9941 5.46074 44.5205 4.79146 42.9553 4.52526C40.5655 4.12216 38.1528 4.66975 36.1753 6.06918C34.1978 7.4686 32.8845 9.55257 32.4799 11.9407C31.6477 16.8615 34.9842 21.5389 39.9242 22.3755C40.4205 22.4592 40.932 22.5048 41.4435 22.5048C42.5278 22.5048 43.5814 22.3147 44.5892 21.942C45.4443 21.6302 46.2537 21.1739 46.9867 20.6186L45.7345 18.6488C45.1542 19.1203 44.49 19.5082 43.7875 19.7668Z" fill="#006BFF"/>
<path d="M118.505 9.71989V16.7779C118.505 19.0595 117.169 20.5045 115.138 20.5045C113.107 20.5045 111.634 19.0595 111.634 16.7779V9.71989H109.435V16.5649C109.435 20.1547 111.679 22.4821 115.138 22.4821C118.131 22.4821 118.596 20.5958 118.596 20.5502V23.0904C118.596 25.6079 117.497 27.0226 115.207 27.0226C113.481 27.0226 112.061 25.7525 111.847 24.1172L109.885 24.8017C110.45 27.2051 112.603 29 115.207 29C118.757 29 120.704 26.6727 120.704 23.0828V9.71228H118.505V9.71989Z" fill="#006BFF"/>
<path d="M17.6754 16.968C16.8431 17.7058 15.8048 18.6261 13.9113 18.6261H12.7812C11.4146 18.6261 10.17 18.1317 9.2767 17.2342C8.4063 16.3596 7.92526 15.1578 7.92526 13.8573V12.3134C7.92526 11.0128 8.4063 9.81115 9.2767 8.93652C10.17 8.03907 11.4146 7.54471 12.7812 7.54471H13.9113C15.8048 7.54471 16.8431 8.465 17.6754 9.20269C18.5381 9.97092 19.2864 10.625 21.2792 10.625C21.5922 10.625 21.8899 10.6021 22.1877 10.5489C22.1877 10.5413 22.1801 10.5337 22.1801 10.5337C22.0579 10.2371 21.9205 9.95569 21.7602 9.6743L20.424 7.37739C19.2024 5.27065 16.9424 3.97009 14.4992 3.97009H11.8344C9.39124 3.97009 7.13122 5.27065 5.9096 7.37739L4.57345 9.6743C3.35182 11.781 3.35182 14.3821 4.57345 16.4888L5.9096 18.7857C7.13122 20.8925 9.39124 22.1931 11.8344 22.1931H14.4992C16.9424 22.1931 19.2024 20.8925 20.424 18.7857L21.7602 16.4888C21.9205 16.2075 22.0579 15.9261 22.1801 15.6295C22.1801 15.6218 22.1877 15.6142 22.1877 15.6142C21.8899 15.5686 21.5922 15.5382 21.2792 15.5382C19.294 15.5457 18.5458 16.1998 17.6754 16.968Z" fill="#006BFF"/>
<path d="M13.9112 8.93652H12.7812C10.6969 8.93652 9.3301 10.4196 9.3301 12.3134V13.8498C9.3301 15.7435 10.6969 17.2266 12.7812 17.2266H13.9112C16.9424 17.2266 16.7056 14.1464 21.2867 14.1464C21.722 14.1464 22.1572 14.1843 22.5771 14.268C22.7145 13.4846 22.7145 12.686 22.5771 11.9027C22.1572 11.9787 21.722 12.0244 21.2867 12.0244C16.7056 12.0168 16.9424 8.93652 13.9112 8.93652Z" fill="#006BFF"/>
<path d="M25.2112 15.3937C24.4248 14.8156 23.5315 14.443 22.5771 14.2681C22.5771 14.2756 22.5771 14.2832 22.5771 14.2908C22.4931 14.7396 22.371 15.1883 22.1953 15.6218C22.997 15.7511 23.7377 16.0554 24.3714 16.5117C24.3714 16.5193 24.3638 16.5269 24.3638 16.5345C23.9972 17.7134 23.4475 18.8237 22.7298 19.8353C22.0197 20.8316 21.1646 21.7138 20.1797 22.4516C18.1334 23.9803 15.7054 24.7865 13.1401 24.7865C11.552 24.7865 10.0173 24.4747 8.56663 23.8663C7.1694 23.2807 5.90959 22.4364 4.83303 21.3564C3.75648 20.2841 2.90898 19.0291 2.31343 17.6373C1.70262 16.1999 1.38959 14.6636 1.38959 13.0892C1.38959 11.5072 1.70262 9.97854 2.31343 8.53343C2.90134 7.14162 3.74884 5.88669 4.83303 4.81431C5.90959 3.74192 7.1694 2.89771 8.56663 2.30447C10.0097 1.69603 11.552 1.38421 13.1401 1.38421C15.6979 1.38421 18.1334 2.1904 20.1797 3.71911C21.1646 4.45686 22.0197 5.33149 22.7298 6.33542C23.4475 7.34696 23.9972 8.4574 24.3638 9.63625C24.3638 9.64386 24.3714 9.65147 24.3714 9.65908C23.7377 10.123 22.997 10.4196 22.1953 10.5489C22.371 10.9824 22.4931 11.4236 22.5771 11.8798C22.5771 11.8875 22.5771 11.8951 22.5771 11.9027C23.5315 11.7278 24.4248 11.3475 25.2112 10.7771C25.9595 10.2219 25.8144 9.59818 25.6999 9.23315C24.0507 3.88644 19.0497 0 13.1401 0C5.87904 0 0 5.8639 0 13.0892C0 20.3221 5.88669 26.1783 13.1401 26.1783C19.0497 26.1783 24.0507 22.2919 25.6999 16.9452C25.8144 16.5649 25.9595 15.9413 25.2112 15.3937Z" fill="#006BFF"/>
<path d="M22.1953 10.5489C21.8975 10.5946 21.5998 10.6249 21.2867 10.6249C19.294 10.6249 18.5458 9.96326 17.683 9.20273C16.8508 8.46496 15.8047 7.54468 13.9188 7.54468H12.7889C11.4221 7.54468 10.1776 8.03905 9.28434 8.93648C8.41391 9.8111 7.93291 11.0128 7.93291 12.3133V13.8573C7.93291 15.1578 8.41391 16.3596 9.28434 17.2342C10.1776 18.1317 11.4146 18.626 12.7889 18.626H13.9188C15.8123 18.626 16.8508 17.7057 17.683 16.968C18.5458 16.1998 19.294 15.5458 21.2867 15.5458C21.5998 15.5458 21.8975 15.5685 22.1953 15.6218C22.371 15.1882 22.4931 14.7472 22.5771 14.2908C22.5771 14.2832 22.5771 14.2756 22.5771 14.268C22.1572 14.1919 21.722 14.1539 21.2867 14.1539C16.7056 14.1539 16.9424 17.2342 13.9112 17.2342H12.7812C10.6969 17.2342 9.3301 15.751 9.3301 13.8573V12.3133C9.3301 10.4196 10.6969 8.93648 12.7812 8.93648H13.9112C16.9424 8.93648 16.7056 12.0167 21.2867 12.0167C21.722 12.0167 22.1572 11.9788 22.5771 11.9026C22.5771 11.895 22.5771 11.8875 22.5771 11.8799C22.4931 11.4235 22.3633 10.9748 22.1953 10.5489Z" fill="#0AE8F0"/>
<path d="M22.1953 10.5489C21.8975 10.5946 21.5998 10.6249 21.2867 10.6249C19.294 10.6249 18.5458 9.96326 17.683 9.20273C16.8508 8.46496 15.8047 7.54468 13.9188 7.54468H12.7889C11.4221 7.54468 10.1776 8.03905 9.28434 8.93648C8.41391 9.8111 7.93291 11.0128 7.93291 12.3133V13.8573C7.93291 15.1578 8.41391 16.3596 9.28434 17.2342C10.1776 18.1317 11.4146 18.626 12.7889 18.626H13.9188C15.8123 18.626 16.8508 17.7057 17.683 16.968C18.5458 16.1998 19.294 15.5458 21.2867 15.5458C21.5998 15.5458 21.8975 15.5685 22.1953 15.6218C22.371 15.1882 22.4931 14.7472 22.5771 14.2908C22.5771 14.2832 22.5771 14.2756 22.5771 14.268C22.1572 14.1919 21.722 14.1539 21.2867 14.1539C16.7056 14.1539 16.9424 17.2342 13.9112 17.2342H12.7812C10.6969 17.2342 9.3301 15.751 9.3301 13.8573V12.3133C9.3301 10.4196 10.6969 8.93648 12.7812 8.93648H13.9112C16.9424 8.93648 16.7056 12.0167 21.2867 12.0167C21.722 12.0167 22.1572 11.9788 22.5771 11.9026C22.5771 11.895 22.5771 11.8875 22.5771 11.8799C22.4931 11.4235 22.3633 10.9748 22.1953 10.5489Z" fill="#0AE8F0"/>
</g>
</g>
<defs>
<clipPath id="clip0_53_231">
<rect width="121" height="29" fill="white"/>
</clipPath>
</defs>
</svg>
