<svg width="16" height="16" viewBox="0 0 16 16" fill="none" xmlns="http://www.w3.org/2000/svg">
<path d="M2.66669 2.66667C2.66669 2.31304 2.80716 1.9739 3.05721 1.72386C3.30726 1.47381 3.6464 1.33333 4.00002 1.33333H9.33335C9.51015 1.33337 9.67969 1.40363 9.80469 1.52867L13.138 4.862C13.2631 4.98699 13.3333 5.15654 13.3334 5.33333V13.3333C13.3334 13.687 13.1929 14.0261 12.9428 14.2761C12.6928 14.5262 12.3536 14.6667 12 14.6667H4.00002C3.6464 14.6667 3.30726 14.5262 3.05721 14.2761C2.80716 14.0261 2.66669 13.687 2.66669 13.3333V2.66667ZM11.724 5.33333L9.33335 2.94267V5.33333H11.724ZM8.00002 2.66667H4.00002V13.3333H12V6.66667H8.66669C8.48988 6.66667 8.32031 6.59643 8.19528 6.4714C8.07026 6.34638 8.00002 6.17681 8.00002 6V2.66667ZM5.33335 8.66666C5.33335 8.48985 5.40359 8.32028 5.52862 8.19526C5.65364 8.07024 5.82321 8 6.00002 8H10C10.1768 8 10.3464 8.07024 10.4714 8.19526C10.5964 8.32028 10.6667 8.48985 10.6667 8.66666C10.6667 8.84348 10.5964 9.01305 10.4714 9.13807C10.3464 9.26309 10.1768 9.33333 10 9.33333H6.00002C5.82321 9.33333 5.65364 9.26309 5.52862 9.13807C5.40359 9.01305 5.33335 8.84348 5.33335 8.66666ZM5.33335 11.3333C5.33335 11.1565 5.40359 10.987 5.52862 10.8619C5.65364 10.7369 5.82321 10.6667 6.00002 10.6667H10C10.1768 10.6667 10.3464 10.7369 10.4714 10.8619C10.5964 10.987 10.6667 11.1565 10.6667 11.3333C10.6667 11.5101 10.5964 11.6797 10.4714 11.8047C10.3464 11.9298 10.1768 12 10 12H6.00002C5.82321 12 5.65364 11.9298 5.52862 11.8047C5.40359 11.6797 5.33335 11.5101 5.33335 11.3333Z" fill="#19254B"/>
</svg>
