<svg width="127" height="54" viewBox="0 0 127 54" fill="none" xmlns="http://www.w3.org/2000/svg">
<mask id="mask0_53_178" style="mask-type:luminance" maskUnits="userSpaceOnUse" x="0" y="0" width="35" height="52">
<path d="M0 0.93924H34.0996V51.7512H0V0.93924Z" fill="white"/>
</mask>
<g mask="url(#mask0_53_178)">
<path fill-rule="evenodd" clip-rule="evenodd" d="M24.762 40.8727C24.762 42.6062 23.3195 44.0119 21.5409 44.0119H12.5588C10.7801 44.0119 9.33861 42.6062 9.33861 40.8727V35.047C9.33861 33.3135 10.7801 31.9078 12.5588 31.9078H21.5409C23.3195 31.9078 24.762 33.3135 24.762 35.047V40.8727ZM9.33861 11.7983C9.33861 10.0639 10.7801 8.65907 12.5588 8.65907H21.5409C23.3195 8.65907 24.762 10.0639 24.762 11.7983V16.0136C24.762 17.748 23.3195 19.1528 21.5409 19.1528H12.5588C10.7801 19.1528 9.33861 17.748 9.33861 16.0136V11.7983ZM34.0996 16.3601V9.63097C34.0996 4.82779 30.1096 0.93924 25.1811 0.93924H8.91947C3.99097 0.93924 0 4.82779 0 9.63097V16.3601C0 19.8984 2.15543 22.9127 5.24743 24.2743V25.5185C2.15543 26.8802 0 29.9132 0 33.4328V43.0588C0 47.862 3.99097 51.7515 8.91947 51.7515H25.1811C30.1096 51.7515 34.0996 47.862 34.0996 43.0588V33.4328C34.0996 29.9132 31.9451 26.8802 28.8522 25.5185V24.2743C31.9451 22.9127 34.0996 19.8796 34.0996 16.3601Z" fill="#FEFEFE"/>
</g>
<path fill-rule="evenodd" clip-rule="evenodd" d="M77.5952 48.0531H90.4805V43.9523H81.9783V40.7925H88.8156V36.7762H81.9783V33.6154H90.4805V29.5156H77.5952V48.0531Z" fill="#FEFEFE"/>
<path fill-rule="evenodd" clip-rule="evenodd" d="M103.805 14.0698H99.3337V6.63733H94.8639V25.1749H99.3337V18.1696H103.805V25.1749H108.275V6.63733H103.805V14.0698Z" fill="#FEFEFE"/>
<path fill-rule="evenodd" clip-rule="evenodd" d="M94.9511 48.0531H107.836V43.9523H99.3342V40.7925H106.171V36.7762H99.3342V33.6154H107.836V29.5156H94.9511V48.0531Z" fill="#FEFEFE"/>
<path fill-rule="evenodd" clip-rule="evenodd" d="M119.582 37.6311H116.252V33.4449H119.582C120.635 33.4449 121.423 33.7867 121.423 35.4103C121.423 36.9465 120.809 37.6311 119.582 37.6311ZM120.109 29.515H111.868V48.0535H116.252V41.4755H120.109C122.212 41.4755 125.718 40.2792 125.718 35.4957C125.718 30.3695 122.3 29.515 120.109 29.515Z" fill="#FEFEFE"/>
<path fill-rule="evenodd" clip-rule="evenodd" d="M83.9061 18.0846H86.5356C86.5356 20.8181 85.5721 21.5027 83.7308 21.5027C81.7151 21.5027 81.0136 20.3918 81.0136 18.0846V12.532C81.0136 10.9939 82.1535 10.0549 83.7308 10.0549C85.5721 10.0549 86.2726 11.1657 86.2726 12.532H90.8311C90.8311 9.37124 88.64 6.2095 83.7308 6.2095C78.7348 6.2095 76.5428 8.60217 76.5428 12.532V18.0846C76.5428 21.2454 77.595 25.3461 83.7308 25.3461C89.6035 25.3461 90.9188 21.8435 90.9188 18.2564V14.6674H83.9061V18.0846Z" fill="#FEFEFE"/>
<path fill-rule="evenodd" clip-rule="evenodd" d="M52.5254 36.8616C50.421 36.5208 49.8959 35.5808 49.8959 34.9826C49.8959 33.7872 50.7727 33.1891 52.2623 33.1891C53.9283 33.1891 54.3657 34.2136 54.3657 34.8117H58.5735C58.5735 32.6764 57.0829 29.0883 52.2623 29.0883C46.9156 29.0883 45.5127 32.5045 45.5127 35.0681C45.5127 38.058 47.9678 39.937 51.5609 40.4497C52.7884 40.6206 54.5411 40.9624 54.5411 42.5006C54.5411 43.696 53.8406 44.465 52.2623 44.465C51.2101 44.465 49.8959 44.2941 49.8959 41.9878H45.5127C45.5127 44.2941 46.1265 48.3085 52.2623 48.3085C58.3104 48.3085 59.0119 44.1232 59.0119 42.4151C59.0119 38.827 56.5578 37.5462 52.5254 36.8616Z" fill="#FEFEFE"/>
<path fill-rule="evenodd" clip-rule="evenodd" d="M58.6612 20.9898H50.158V17.829H56.9953V13.8127H50.158V10.6528H58.6612V6.55206H45.7758V25.0896H58.6612V20.9898Z" fill="#FEFEFE"/>
<path fill-rule="evenodd" clip-rule="evenodd" d="M67.1638 29.5154H62.7816V48.0529H73.5636V43.7812H67.1638V29.5154Z" fill="#FEFEFE"/>
<path fill-rule="evenodd" clip-rule="evenodd" d="M116.252 25.1751H120.809V10.9092H124.841V6.63751H112.132V10.9092H116.252V25.1751Z" fill="#FEFEFE"/>
<path fill-rule="evenodd" clip-rule="evenodd" d="M65.8493 21.1603H62.7813V25.1747H73.387V21.1603H70.2324V10.6534H73.2993V6.63712H62.6937V10.6534H65.8493V21.1603Z" fill="#FEFEFE"/>
</svg>
