<svg width="28" height="28" viewBox="0 0 28 28" fill="none" xmlns="http://www.w3.org/2000/svg">
<g clip-path="url(#clip0_53_225)">
<path d="M20.4512 17.0408C20.4512 18.2168 20.7858 18.6858 21.6608 18.6858C23.611 18.6858 24.8528 16.2008 24.8528 12.068C24.8528 5.75124 20.2496 2.72724 14.5026 2.72724C8.59039 2.72724 3.21299 6.69204 3.21299 14.1848C3.21299 21.3416 7.91699 25.2392 15.141 25.2392C17.5938 25.2392 19.2402 24.9704 21.7588 24.1304L22.2992 26.3802C19.8128 27.188 17.1556 27.4218 15.1074 27.4218C5.63219 27.4218 0.55719 22.2138 0.55719 14.1834C0.55719 6.08584 6.43859 0.575439 14.5362 0.575439C22.9698 0.575439 27.4372 5.61544 27.4372 11.7978C27.4372 17.0394 25.7922 21.0378 20.6178 21.0378C18.2644 21.0378 16.7202 20.097 16.5186 18.0124C15.9138 20.3308 14.301 21.0378 12.1156 21.0378C9.19239 21.0378 6.73959 18.7852 6.73959 14.2506C6.73959 9.68104 8.89139 6.85864 12.7554 6.85864C14.805 6.85864 16.0818 7.66504 16.6502 8.94184L17.626 7.16104H20.4484V17.0408H20.4512ZM16.3198 12.6056C16.3198 10.759 14.9408 9.98484 13.7984 9.98484C12.5552 9.98484 11.179 10.9914 11.179 13.9496C11.179 16.3016 12.2206 17.612 13.7984 17.612C14.9072 17.612 16.3198 16.9064 16.3198 14.9576V12.6056Z" fill="white"/>
</g>
<defs>
<clipPath id="clip0_53_225">
<rect width="28" height="28" fill="white"/>
</clipPath>
</defs>
</svg>
