<svg width="30" height="27" viewBox="0 0 30 27" fill="none" xmlns="http://www.w3.org/2000/svg">
<path d="M15 0C13.0302 0 11.0796 0.348732 9.25975 1.02628C7.43986 1.70384 5.78628 2.69694 4.3934 3.94889C1.58035 6.47732 0 9.90662 0 13.4824C0 19.4416 4.305 24.4974 10.26 26.2906C11.01 26.3985 11.25 25.9805 11.25 25.6165V23.338C7.095 24.1469 6.21 21.5313 6.21 21.5313C5.52 19.9674 4.545 19.5494 4.545 19.5494C3.18 18.7135 4.65 18.7405 4.65 18.7405C6.15 18.8349 6.945 20.1292 6.945 20.1292C8.25 22.1785 10.455 21.5718 11.31 21.2482C11.445 20.3718 11.835 19.7786 12.255 19.4416C8.925 19.1045 5.43 17.945 5.43 12.8082C5.43 11.3117 6 10.1118 6.975 9.15452C6.825 8.81746 6.3 7.4153 7.125 5.59518C7.125 5.59518 8.385 5.23116 11.25 6.97038C12.435 6.67377 13.725 6.52546 15 6.52546C16.275 6.52546 17.565 6.67377 18.75 6.97038C21.615 5.23116 22.875 5.59518 22.875 5.59518C23.7 7.4153 23.175 8.81746 23.025 9.15452C24 10.1118 24.57 11.3117 24.57 12.8082C24.57 17.9585 21.06 19.091 17.715 19.4281C18.255 19.846 18.75 20.6685 18.75 21.9223V25.6165C18.75 25.9805 18.99 26.4119 19.755 26.2906C25.71 24.484 30 19.4416 30 13.4824C30 11.7118 29.612 9.95864 28.8582 8.32288C28.1044 6.68713 26.9995 5.20084 25.6066 3.94889C24.2137 2.69694 22.5601 1.70384 20.7403 1.02628C18.9204 0.348732 16.9698 0 15 0Z" fill="white"/>
</svg>
