<svg width="92" height="37" viewBox="0 0 92 37" fill="none" xmlns="http://www.w3.org/2000/svg">
<g clip-path="url(#clip0_53_173)">
<path fill-rule="evenodd" clip-rule="evenodd" d="M91.1117 34.2123V36.6089H79.1285V34.2123H91.1117ZM62.3519 34.2123V36.6089H50.3687V34.2123H62.3519ZM71.7015 34.2123L70.7375 36.6089L69.7861 34.2123H71.7015ZM44.8564 34.2123C43.1371 35.7006 40.8693 36.6089 38.3375 36.6089H19.2123V34.2123H44.8564ZM16.8156 34.2123V36.6089H0.039093V34.2123H16.8156ZM62.3519 29.419V31.8156H50.3687V29.419H62.3519ZM73.5753 29.419L72.6424 31.8156H68.848L67.908 29.419H73.5753ZM47.2531 29.419C47.0367 30.2711 46.6911 31.0757 46.2465 31.8156H19.2123V29.419H47.2531ZM16.8156 29.419V31.8156H0.039093V29.419H16.8156ZM91.1117 29.419V31.8156H79.1285V29.419H91.1117ZM86.3184 24.6257V27.0223H79.1285V24.6257H86.3184ZM62.3519 24.6257V27.0223H55.162V24.6257H62.3519ZM75.4555 24.6257L74.5139 27.0223H66.9671L66.0181 24.6257H75.4555ZM46.9175 24.6257C47.1329 25.3898 47.2531 26.1924 47.2531 27.0223H38.3855V24.6257H46.9175ZM31.1955 24.6257V27.0223H24.0056V24.6257H31.1955ZM12.0223 24.6257V27.0223H4.83239V24.6257H12.0223ZM86.3184 19.8324V22.229H79.1285V19.8324H86.3184ZM62.3519 19.8324V22.229H55.162V19.8324H62.3519ZM77.3335 19.8324L76.3964 22.229H65.0602L64.1304 19.8324H77.3335ZM43.9697 19.8324C44.7962 20.5089 45.508 21.3196 46.0547 22.229H24.0056V19.8324H43.9697ZM12.0223 19.8324V22.229H4.83239V19.8324H12.0223ZM70.0688 15.0391L70.7402 16.9762L71.411 15.0391H86.3184V17.4357H79.1285V15.2334L78.3136 17.4357H63.1428L62.3519 15.2332V17.4357H55.162V15.0391H70.0688ZM12.0223 15.0391V17.4357H4.83239V15.0391H12.0223ZM46.0547 15.0391C45.508 15.9485 44.7962 16.759 43.9697 17.4357H24.0056V15.0391H46.0547ZM86.3184 10.2458V12.6424H72.2426L73.091 10.2458H86.3184ZM68.3974 10.2458L69.2458 12.6424H55.162V10.2458H68.3974ZM47.2531 10.2458C47.2531 11.0754 47.1329 11.8781 46.9175 12.6424H38.3855V10.2458H47.2531ZM31.1955 10.2458V12.6424H24.0056V10.2458H31.1955ZM12.0223 10.2458V12.6424H4.83239V10.2458H12.0223ZM66.7379 5.45248L67.5709 7.84912H50.3689L50.3687 5.45248H66.7379ZM91.1117 5.45248V7.84912H73.9007L74.7663 5.45248H91.1117ZM46.2465 5.45248C46.6911 6.19239 47.0367 6.99701 47.2531 7.84912H19.2123V5.45248H46.2465ZM16.8156 5.45248V7.84912H0.039093V5.45248H16.8156ZM65.055 0.65918L65.9039 3.05583H50.3689L50.3687 0.65918H65.055ZM91.1117 0.65918V3.05583H75.5961L76.425 0.65918H91.1117ZM38.3375 0.65918C40.8509 0.65918 43.1373 1.56751 44.8564 3.05583H19.2123V0.65918H38.3375ZM16.8156 0.65918V3.05583H0.039093V0.65918H16.8156Z" fill="white"/>
</g>
<defs>
<clipPath id="clip0_53_173">
<rect width="91.0726" height="35.9497" fill="white" transform="translate(0.039093 0.65918)"/>
</clipPath>
</defs>
</svg>
