<svg width="27" height="25" viewBox="0 0 27 25" fill="none" xmlns="http://www.w3.org/2000/svg">
<path d="M24 0C24.7956 0 25.5587 0.286768 26.1213 0.797219C26.6839 1.30767 27 1.99999 27 2.72188V21.775C27 22.4969 26.6839 23.1892 26.1213 23.6997C25.5587 24.2101 24.7956 24.4969 24 24.4969H3C2.20435 24.4969 1.44129 24.2101 0.87868 23.6997C0.31607 23.1892 0 22.4969 0 21.775V2.72188C0 1.99999 0.31607 1.30767 0.87868 0.797219C1.44129 0.286768 2.20435 0 3 0H24ZM23.25 21.0946V13.8816C23.25 12.7049 22.7348 11.5764 21.8178 10.7444C20.9007 9.91235 19.6569 9.44492 18.36 9.44492C17.085 9.44492 15.6 10.1526 14.88 11.2141V9.70349H10.695V21.0946H14.88V14.3851C14.88 13.3372 15.81 12.4798 16.965 12.4798C17.522 12.4798 18.0561 12.6805 18.4499 13.0379C18.8438 13.3952 19.065 13.8798 19.065 14.3851V21.0946H23.25ZM5.82 7.56682C6.48835 7.56682 7.12932 7.32594 7.60191 6.89716C8.0745 6.46838 8.34 5.88683 8.34 5.28044C8.34 4.01477 7.215 2.98046 5.82 2.98046C5.14768 2.98046 4.50289 3.22278 4.02748 3.65411C3.55208 4.08544 3.285 4.67045 3.285 5.28044C3.285 6.54612 4.425 7.56682 5.82 7.56682ZM7.905 21.0946V9.70349H3.75V21.0946H7.905Z" fill="white"/>
</svg>
