<svg width="40" height="40" viewBox="0 0 40 40" fill="none" xmlns="http://www.w3.org/2000/svg">
<path d="M13.7566 11.6667C15.3683 11.6667 16.6733 12.9717 16.6733 14.5833V30.4167C16.6733 31.1902 16.366 31.9321 15.819 32.479C15.2721 33.026 14.5302 33.3333 13.7566 33.3333H6.24998C5.47643 33.3333 4.73457 33.026 4.18759 32.479C3.6406 31.9321 3.33331 31.1902 3.33331 30.4167V14.5833C3.33331 12.9717 4.63998 11.6667 6.24998 11.6667H13.7566ZM10.42 27.4917H9.58665L9.41665 27.5033C9.11746 27.5445 8.84329 27.6926 8.64483 27.9202C8.44637 28.1479 8.33703 28.4397 8.33703 28.7417C8.33703 29.0437 8.44637 29.3355 8.64483 29.5631C8.84329 29.7907 9.11746 29.9388 9.41665 29.98L9.58665 29.9917H10.42L10.59 29.98C10.8892 29.9388 11.1633 29.7907 11.3618 29.5631C11.5603 29.3355 11.6696 29.0437 11.6696 28.7417C11.6696 28.4397 11.5603 28.1479 11.3618 27.9202C11.1633 27.6926 10.8892 27.5445 10.59 27.5033L10.42 27.4917ZM32.9166 6.66666C33.8669 6.66654 34.7817 7.02715 35.4762 7.6756C36.1708 8.32406 36.5933 9.21201 36.6583 10.16L36.6666 10.4167V24.5833C36.6668 25.5335 36.3062 26.4484 35.6577 27.1429C35.0092 27.8375 34.1213 28.26 33.1733 28.325L32.9166 28.3333H18.3333V14.1667C18.3335 13.1091 17.9315 12.091 17.2089 11.3188C16.4862 10.5466 15.4969 10.0781 14.4416 10.0083L14.165 9.99999H10.0216C10.1189 9.13009 10.5174 8.32161 11.1481 7.71465C11.7788 7.10769 12.602 6.74048 13.475 6.67666L13.75 6.66666H32.9166ZM25.4166 22.5H21.25C20.9334 22.5005 20.6288 22.6211 20.3977 22.8375C20.1666 23.0538 20.0262 23.3498 20.0049 23.6656C19.9835 23.9815 20.0828 24.2936 20.2826 24.5391C20.4825 24.7846 20.768 24.9452 21.0816 24.9883L21.25 25H25.4166C25.7334 24.9999 26.0382 24.8796 26.2696 24.6634C26.501 24.4472 26.6418 24.1512 26.6634 23.8352C26.6849 23.5192 26.5858 23.2068 26.3859 22.9612C26.1861 22.7155 25.9004 22.5548 25.5866 22.5117L25.4166 22.5Z" fill="white"/>
</svg>
