<svg width="187" height="48" viewBox="0 0 187 48" fill="none" xmlns="http://www.w3.org/2000/svg">
<g clip-path="url(#clip0_53_170)">
<path fill-rule="evenodd" clip-rule="evenodd" d="M47.562 25.0144L44.0373 21.4879C43.8987 21.3497 43.7888 21.1853 43.7138 21.0044C43.6387 20.8234 43.6001 20.6294 43.6001 20.4334V16.1177C43.6001 12.129 43.1869 10.6825 42.4065 9.22564C41.6434 7.78359 40.4653 6.60497 39.0252 5.84294C37.5685 5.06403 36.1221 4.64804 32.138 4.64804H26.436C26.3776 4.64722 26.3208 4.62927 26.2724 4.5964C26.2241 4.56354 26.1864 4.5172 26.1641 4.46311C26.1417 4.40903 26.1357 4.34956 26.1467 4.29207C26.1577 4.23458 26.1853 4.18157 26.226 4.13961L29.749 0.61311C30.03 0.332157 30.4108 0.174533 30.8077 0.174866H32.7887C38.103 0.174866 40.0293 0.727807 41.9727 1.76693C43.8929 2.78309 45.4637 4.3548 46.481 6.27776C47.5193 8.22076 48.0726 10.1501 48.0726 15.4672V24.8038C48.0728 24.8634 48.0552 24.9217 48.0222 24.9713C47.9892 25.0208 47.9421 25.0593 47.8871 25.0819C47.8321 25.1045 47.7717 25.1102 47.7134 25.0982C47.6552 25.0861 47.6036 25.057 47.562 25.0144ZM23.2443 47.3837L26.769 43.8572C26.9081 43.718 27.0732 43.6077 27.2549 43.5325C27.4366 43.4573 27.6312 43.4187 27.8278 43.419H32.138C36.1238 43.419 37.5685 43.003 39.0269 42.2241C40.4663 41.4617 41.6437 40.2831 42.4065 38.8414C43.1852 37.3845 43.6019 35.938 43.6019 31.9493V26.2453C43.6015 26.186 43.6188 26.128 43.6516 26.0787C43.6843 26.0294 43.731 25.9909 43.7856 25.9683C43.8403 25.9457 43.9004 25.94 43.9583 25.9518C44.0162 25.9636 44.0693 25.9925 44.1107 26.0347L47.6354 29.5612C47.7736 29.6996 47.8832 29.864 47.9579 30.045C48.0327 30.2259 48.0711 30.4199 48.0709 30.6157V32.5998C48.0709 37.9169 47.5193 39.8462 46.4793 41.7892C45.4617 43.7115 43.8909 45.2826 41.971 46.2984C40.0293 47.3392 38.1013 47.8921 32.787 47.8921H23.4561C23.3972 47.8924 23.3395 47.8752 23.2904 47.8426C23.2413 47.81 23.203 47.7635 23.1803 47.709C23.1576 47.6545 23.1516 47.5945 23.163 47.5366C23.1744 47.4787 23.2027 47.4255 23.2443 47.3837ZM4.41519 26.5791L0.890486 23.0526C0.848791 23.0106 0.79562 22.982 0.737693 22.9703C0.679765 22.9586 0.619682 22.9644 0.565036 22.9869C0.510391 23.0095 0.463635 23.0477 0.43068 23.0969C0.397724 23.1461 0.380047 23.2039 0.379883 23.2631L0.379883 32.5998C0.379883 37.9169 0.933179 39.8445 1.97317 41.7892C2.99031 43.7113 4.5605 45.2824 6.4798 46.2984C8.42317 47.3392 10.3495 47.8921 15.6638 47.8921H17.6448C18.0417 47.8925 18.4225 47.7348 18.7035 47.4539L22.2265 43.9274C22.2682 43.8856 22.2965 43.8324 22.3079 43.7745C22.3193 43.7166 22.3133 43.6565 22.2906 43.6021C22.2679 43.5476 22.2295 43.5011 22.1804 43.4685C22.1313 43.4359 22.0737 43.4186 22.0148 43.419H16.3145C12.3287 43.419 10.884 43.003 9.42559 42.2241C7.98553 41.462 6.80741 40.2834 6.04433 38.8414C5.26562 37.3828 4.85065 35.938 4.85065 31.9493V27.6319C4.85066 27.4363 4.81221 27.2427 4.73748 27.062C4.66276 26.8814 4.55324 26.7173 4.41519 26.5791ZM25.2082 0.683298L21.6835 4.20979C21.5444 4.34899 21.3793 4.45933 21.1976 4.53453C21.0159 4.60973 20.8213 4.6483 20.6247 4.64804H16.3162C12.3304 4.64804 10.8857 5.06403 9.42729 5.84294C7.98724 6.60497 6.80912 7.78359 6.04604 9.22564C5.26733 10.6825 4.85236 12.129 4.85236 16.1177V21.8217C4.85219 21.881 4.83452 21.9388 4.80156 21.988C4.7686 22.0372 4.72185 22.0754 4.6672 22.098C4.61256 22.1205 4.55248 22.1263 4.49455 22.1146C4.43662 22.1029 4.38345 22.0743 4.34175 22.0323L0.817055 18.5041C0.678767 18.366 0.56898 18.2019 0.493968 18.0213C0.418956 17.8406 0.380189 17.6469 0.379883 17.4513L0.379883 15.4672C0.379883 10.1501 0.933179 8.22076 1.97317 6.27776C2.99039 4.35575 4.56056 2.78471 6.4798 1.76864C8.42317 0.727807 10.3495 0.174866 15.6638 0.174866H24.9964C25.055 0.175355 25.1121 0.193067 25.1607 0.225805C25.2092 0.258542 25.2472 0.304862 25.2697 0.359015C25.2923 0.413168 25.2985 0.472769 25.2875 0.530419C25.2766 0.588068 25.249 0.641228 25.2082 0.683298ZM35.3092 12.9884L40.1147 17.5848C40.157 17.6253 40.2102 17.6526 40.2677 17.6631C40.3252 17.6736 40.3846 17.667 40.4384 17.644C40.4922 17.6211 40.5381 17.5828 40.5704 17.5339C40.6028 17.485 40.6201 17.4277 40.6202 17.3691V13.5944C40.6184 12.0111 39.9893 10.4933 38.8714 9.3748C37.7534 8.25634 36.2381 7.62879 34.6586 7.63015H23.3536C22.9581 7.63027 22.5787 7.7872 22.2983 8.06669L18.7701 11.5932C18.7279 11.6348 18.6991 11.6882 18.6873 11.7464C18.6756 11.8047 18.6815 11.8651 18.7042 11.9199C18.727 11.9747 18.7656 12.0215 18.8151 12.0542C18.8646 12.0869 18.9226 12.104 18.9819 12.1033H33.1678C33.5401 12.1033 33.8953 12.1718 34.2214 12.2951C34.6193 12.4389 34.9899 12.6717 35.3092 12.9884ZM30.6694 39.937L35.2631 35.1266C35.5825 34.8081 35.813 34.4367 35.9582 34.0395C36.0811 33.7125 36.1494 33.3565 36.1494 32.985V18.7917C36.1496 18.7325 36.1673 18.6746 36.2002 18.6254C36.2332 18.5763 36.2799 18.538 36.3346 18.5155C36.3892 18.4929 36.4493 18.4871 36.5072 18.4988C36.5652 18.5105 36.6183 18.5392 36.66 18.5811L40.1847 22.111C40.4634 22.3902 40.62 22.7689 40.6202 23.1639V34.476C40.6188 36.0594 39.9902 37.5773 38.8726 38.6961C37.7549 39.8149 36.2398 40.4429 34.6603 40.442H30.8863C30.828 40.4418 30.771 40.4246 30.7224 40.3925C30.6737 40.3603 30.6355 40.3145 30.6124 40.2609C30.5894 40.2072 30.5825 40.1479 30.5926 40.0904C30.6028 40.0328 30.6294 39.9795 30.6694 39.937ZM13.1433 35.0769L8.33778 30.4822C8.29563 30.4418 8.2426 30.4146 8.18522 30.404C8.12784 30.3934 8.06862 30.3999 8.01488 30.4226C7.96113 30.4454 7.9152 30.4834 7.88276 30.532C7.85031 30.5806 7.83277 30.6377 7.8323 30.6962V34.4726C7.83411 36.0559 8.46317 37.5737 9.58113 38.6922C10.6991 39.8107 12.2144 40.4382 13.7939 40.4368H25.0989C25.4947 40.4365 25.8741 40.2789 26.1542 39.9986L29.6824 36.4721C29.724 36.4303 29.7523 36.3771 29.7637 36.3192C29.7751 36.2613 29.7691 36.2013 29.7464 36.1468C29.7237 36.0923 29.6854 36.0458 29.6363 36.0132C29.5872 35.9806 29.5295 35.9634 29.4706 35.9637H15.2847C14.9124 35.9637 14.5572 35.8952 14.2294 35.7719C13.821 35.6227 13.4502 35.3854 13.1433 35.0769ZM17.7831 8.13345L13.1894 12.9439C12.8816 13.2509 12.6449 13.622 12.496 14.0309C12.3714 14.3596 12.3031 14.7157 12.3031 15.0854V29.2804C12.3034 29.3399 12.286 29.3981 12.253 29.4475C12.2201 29.497 12.1731 29.5354 12.1182 29.5579C12.0633 29.5803 12.0029 29.5858 11.9448 29.5736C11.8868 29.5614 11.8337 29.532 11.7925 29.4893L8.26947 25.9628C7.99081 25.6836 7.83417 25.3049 7.83401 24.91V13.5944C7.83582 12.0111 8.46488 10.4933 9.58284 9.3748C10.7008 8.25634 12.2161 7.62879 13.7956 7.63015H17.5696C17.6274 7.63091 17.6838 7.64847 17.7318 7.68069C17.7799 7.71292 17.8176 7.75842 17.8404 7.8117C17.8632 7.86497 17.87 7.92372 17.8602 7.98083C17.8503 8.03794 17.8241 8.09096 17.7848 8.13345H17.7831ZM62.9194 14.6866H61.765C60.8053 14.6866 60.0265 15.4638 60.0265 16.4224V40.9367C60.0265 41.8971 60.8053 42.6743 61.765 42.6743H62.8323C63.7937 42.6743 64.5724 41.8971 64.5724 40.9384V31.3604C64.5724 31.2971 64.6237 31.2474 64.6852 31.2474C64.914 31.5624 65.2043 31.8859 65.5561 32.2146C65.9113 32.545 66.3416 32.8549 66.8454 33.1442C67.3509 33.4352 67.9315 33.6714 68.5873 33.8563C69.2447 34.0395 70.0029 34.1319 70.8619 34.1319C72.0657 34.1453 73.2577 33.8939 74.3541 33.3955C75.4505 32.8971 76.4246 32.1639 77.2077 31.2474C77.9986 30.3145 78.6085 29.2415 79.006 28.0838C79.4363 26.8718 79.6498 25.5674 79.6498 24.1704C79.6609 22.8418 79.4567 21.5201 79.0452 20.2571C78.6689 19.0936 78.0632 18.0178 77.2641 17.0935C76.4771 16.1948 75.5085 15.4741 74.4225 14.9793C73.3125 14.4657 72.0607 14.209 70.6724 14.209C69.383 14.209 68.1842 14.4709 67.0725 14.9981C65.9625 15.5254 65.0779 16.3676 64.4205 17.5283C64.4106 17.5283 64.4008 17.5264 64.3917 17.5226C64.3826 17.5188 64.3743 17.5132 64.3673 17.5062C64.3604 17.4993 64.3548 17.491 64.351 17.4818C64.3473 17.4727 64.3453 17.4629 64.3453 17.453V16.1074C64.3449 15.9202 64.3076 15.7348 64.2357 15.562C64.1638 15.3892 64.0587 15.2322 63.9263 15.1001C63.7939 14.968 63.6368 14.8633 63.464 14.7921C63.2913 14.7208 63.1062 14.6844 62.9194 14.6849V14.6866ZM74.7452 22.0391C74.9843 22.7239 75.1039 23.436 75.1039 24.1739C75.1039 24.9117 74.9843 25.6238 74.7452 26.3086C74.5163 26.9804 74.1554 27.5994 73.6837 28.129C73.2121 28.6585 72.6393 29.0879 71.9992 29.3917C71.3418 29.7084 70.5955 29.8659 69.7622 29.8659C69.0218 29.8789 68.2875 29.73 67.6104 29.4296C66.9333 29.1293 66.3296 28.6846 65.8413 28.1266C65.3722 27.5962 65.0119 26.9785 64.7808 26.3086C64.5417 25.6238 64.4222 24.9117 64.4222 24.1739C64.4222 23.436 64.5417 22.7239 64.7808 22.0391C65.0096 21.3673 65.3705 20.7483 65.8422 20.2187C66.3138 19.6891 66.8867 19.2598 67.5268 18.956C68.1842 18.6393 68.9288 18.4818 69.7639 18.4818C70.5039 18.469 71.2379 18.618 71.9147 18.9183C72.5916 19.2187 73.195 19.6633 73.683 20.2211C74.151 20.7484 74.5045 21.3544 74.7452 22.0391ZM87.5035 14.6866H86.2022C85.2408 14.6866 84.4621 15.4638 84.4621 16.4224V31.9253C84.4621 32.884 85.2408 33.6612 86.2022 33.6612H87.2695C88.2293 33.6612 89.008 32.884 89.008 31.9253V23.5028C89.008 23.2375 89.0643 22.842 89.1787 22.3148C89.2932 21.7892 89.5203 21.2619 89.8618 20.7347C90.2034 20.2074 90.6935 19.7401 91.339 19.3309C91.9828 18.9218 92.8349 18.7181 93.8954 18.7181C94.2489 18.7181 94.6092 18.7523 94.9747 18.8174C95.1111 18.8422 95.2513 18.8366 95.3853 18.8012C95.5193 18.7658 95.644 18.7014 95.7505 18.6124C95.857 18.5234 95.9427 18.4121 96.0016 18.2863C96.0606 18.1606 96.0913 18.0233 96.0915 17.8844V15.2823C96.092 15.048 96.0111 14.8208 95.8628 14.6396C95.7145 14.4585 95.508 14.3347 95.2787 14.2894C95.0103 14.2371 94.7375 14.2113 94.4641 14.2124C93.2516 14.2124 92.1775 14.5154 91.2434 15.1197C90.3092 15.7274 89.5886 16.5833 89.0848 17.6909C89.0747 17.6912 89.0646 17.6893 89.0551 17.6856C89.0457 17.6818 89.0371 17.6761 89.03 17.6689C89.0228 17.6617 89.0171 17.6531 89.0133 17.6437C89.0096 17.6342 89.0077 17.6241 89.008 17.6139V16.1879C89.0066 15.7892 88.8477 15.4074 88.566 15.126C88.2843 14.8446 87.9012 14.6866 87.5035 14.6866ZM102.651 14.6866H101.584C100.622 14.6866 99.8433 15.4638 99.8433 16.4224V31.9253C99.8433 32.884 100.622 33.6612 101.584 33.6612H102.651C103.611 33.6612 104.389 32.884 104.389 31.9253V16.4207C104.389 15.4621 103.611 14.6849 102.651 14.6849V14.6866ZM100.014 6.24694C99.4711 6.81187 99.1995 7.4778 99.1995 8.2413C99.1995 9.00651 99.4711 9.67244 100.014 10.2391C100.557 10.804 101.245 11.0882 102.08 11.0882C102.912 11.0882 103.614 10.8177 104.181 10.2784C104.75 9.73749 105.035 9.05958 105.035 8.2413C105.044 7.86076 104.973 7.48252 104.826 7.13162C104.679 6.78072 104.459 6.46517 104.181 6.20586C103.614 5.66661 102.912 5.39613 102.08 5.39613C101.245 5.39613 100.557 5.68031 100.014 6.24694ZM116.323 18.0076C117.043 18.0076 117.865 18.3449 118.787 19.0228C119.463 19.5192 120.397 19.4627 121.009 18.8876L121.576 18.3569C121.757 18.1871 121.9 17.9802 121.994 17.7503C122.088 17.5203 122.132 17.2727 122.123 17.0242C122.113 16.7757 122.05 16.5322 121.939 16.3102C121.827 16.0882 121.669 15.8929 121.475 15.7377C120.945 15.3131 120.467 15.0221 120.037 14.8646C118.885 14.436 117.666 14.2152 116.437 14.2124C115.529 14.2124 114.632 14.3305 113.747 14.5667C112.903 14.7858 112.106 15.1614 111.399 15.6743C110.716 16.1742 110.168 16.8145 109.751 17.5917C109.333 18.3688 109.126 19.2864 109.126 20.3392C109.126 21.5513 109.365 22.4996 109.845 23.1861C110.325 23.8709 110.931 24.405 111.664 24.7867C112.41 25.1737 113.207 25.4532 114.031 25.617C114.878 25.7882 115.667 25.9731 116.4 26.1699C117.132 26.3685 117.738 26.6253 118.218 26.9403C118.696 27.257 118.937 27.7449 118.937 28.404C118.945 28.7485 118.846 29.0869 118.654 29.3729C118.466 29.6485 118.218 29.8796 117.914 30.0645C117.612 30.2494 117.282 30.3812 116.931 30.4582C116.577 30.5387 116.236 30.5781 115.906 30.5781C114.948 30.5781 114.133 30.3606 113.464 29.9258C113.212 29.7557 112.972 29.5681 112.747 29.3643C112.417 29.0747 111.99 28.9204 111.551 28.9321C111.112 28.9439 110.694 29.1208 110.38 29.4277L109.909 29.8899C109.731 30.0637 109.592 30.2739 109.503 30.5061C109.413 30.7384 109.374 30.9874 109.389 31.2359C109.405 31.4845 109.473 31.7269 109.59 31.9466C109.707 32.1663 109.87 32.3582 110.067 32.5091C110.716 33.0055 111.275 33.3376 111.741 33.502C112.926 33.9248 114.227 34.1354 115.641 34.1354C116.577 34.1354 117.511 34.0309 118.445 33.8204C119.338 33.6268 120.19 33.2792 120.964 32.7932C121.709 32.3186 122.332 31.6747 122.783 30.9136C123.251 30.1364 123.483 29.1812 123.483 28.0479C123.483 26.8085 123.244 25.8344 122.766 25.1223C122.301 24.4252 121.677 23.8495 120.945 23.4429C120.203 23.0305 119.406 22.7245 118.579 22.5339C117.787 22.3496 116.998 22.1584 116.21 21.9604C115.578 21.8134 114.967 21.5873 114.391 21.2876C113.913 21.024 113.672 20.6029 113.672 20.0225C113.672 19.3121 113.963 18.7968 114.543 18.4818C115.087 18.1752 115.699 18.0121 116.323 18.0076ZM129.966 14.6866H129.125C128.166 14.6866 127.387 15.4638 127.387 16.4224V31.9253C127.387 32.884 128.166 33.6612 129.125 33.6612H130.193C131.154 33.6612 131.933 32.884 131.933 31.9253V23.3042C131.933 22.6708 132.008 22.0648 132.16 21.4862C132.301 20.9277 132.553 20.4033 132.899 19.9438C133.241 19.4953 133.668 19.1392 134.187 18.8773C134.704 18.6119 135.341 18.4818 136.1 18.4818C137.211 18.4818 138.007 18.8311 138.487 19.5278C138.967 20.2263 139.206 21.1695 139.206 22.3558V31.9253C139.206 32.884 139.986 33.6612 140.948 33.6612H142.013C142.975 33.6612 143.754 32.884 143.754 31.9253V23.383C143.754 22.777 143.822 22.1778 143.962 21.5855C144.088 21.0202 144.32 20.4837 144.643 20.0037C144.959 19.5415 145.364 19.1734 145.856 18.8961C146.348 18.6188 146.949 18.4818 147.656 18.4818C148.337 18.4818 148.892 18.6 149.322 18.8362C149.742 19.0641 150.095 19.3982 150.345 19.8051C150.598 20.2143 150.774 20.6885 150.875 21.2294C150.977 21.7687 151.028 22.3285 151.028 22.9088V31.9253C151.028 32.884 151.805 33.6612 152.767 33.6612H153.834C154.794 33.6612 155.573 32.884 155.573 31.9253V22.3558C155.573 21.2226 155.46 20.1612 155.231 19.1717C155.03 18.2444 154.651 17.3652 154.114 16.5833C153.594 15.8432 152.897 15.2453 152.087 14.8441C151.254 14.4229 150.231 14.2107 149.018 14.2107C147.656 14.2107 146.481 14.4948 145.495 15.0615C144.51 15.6281 143.69 16.5166 143.033 17.7303C142.099 15.385 140.205 14.2124 137.35 14.2124C135.835 14.2124 134.629 14.5616 133.733 15.2583C132.895 15.9023 132.204 16.7182 131.706 17.6516V16.4224C131.706 15.4638 130.927 14.6866 129.966 14.6866ZM163.986 14.6866H162.919C161.959 14.6866 161.181 15.4638 161.181 16.4224V31.9253C161.181 32.884 161.959 33.6612 162.919 33.6612H163.986C164.948 33.6612 165.727 32.884 165.727 31.9253V16.4207C165.727 15.4621 164.948 14.6849 163.986 14.6849V14.6866ZM161.351 6.24694C160.808 6.81187 160.537 7.4778 160.537 8.2413C160.537 9.00651 160.808 9.67244 161.351 10.2391C161.894 10.804 162.581 11.0882 163.416 11.0882C164.249 11.0882 164.95 10.8177 165.516 10.2784C166.087 9.73749 166.37 9.05958 166.37 8.2413C166.38 7.86076 166.309 7.48252 166.162 7.13162C166.014 6.78072 165.794 6.46517 165.516 6.20586C164.95 5.66661 164.249 5.39613 163.416 5.39613C162.581 5.39613 161.894 5.6786 161.35 6.24523L161.351 6.24694ZM182.283 18.9954C182.424 19.0793 182.588 19.194 182.776 19.3395C183.48 19.8907 184.487 19.8188 185.106 19.1734L185.807 18.439C185.978 18.2616 186.108 18.0497 186.191 17.8176C186.273 17.5855 186.305 17.3385 186.284 17.0931C186.264 16.8477 186.191 16.6094 186.072 16.3943C185.952 16.1792 185.788 15.9921 185.591 15.8455C184.983 15.3936 184.453 15.0786 184.006 14.904C182.892 14.4545 181.703 14.2199 180.502 14.2124C179.137 14.2124 177.85 14.4486 176.637 14.9228C175.425 15.397 174.378 16.0698 173.493 16.9394C172.591 17.8363 171.876 18.9049 171.391 20.0825C170.874 21.3082 170.614 22.6708 170.614 24.1739C170.614 25.6769 170.872 27.0396 171.391 28.2653C171.876 29.4429 172.591 30.5115 173.493 31.4083C174.378 32.278 175.425 32.949 176.637 33.4249C177.85 33.8991 179.137 34.1354 180.502 34.1354C180.906 34.1354 181.386 34.0891 181.941 33.9984C183.189 33.7853 184.388 33.3505 185.483 32.7145C185.696 32.5924 185.879 32.4241 186.018 32.2221C186.158 32.02 186.251 31.7892 186.29 31.5465C186.33 31.3039 186.314 31.0555 186.245 30.8195C186.177 30.5835 186.056 30.3659 185.893 30.1826L185.201 29.4071C184.912 29.0836 184.514 28.8794 184.083 28.8341C183.652 28.7889 183.22 28.9059 182.87 29.1623C182.727 29.2667 182.595 29.3506 182.472 29.4123C181.86 29.7164 181.185 29.8718 180.502 29.8659C179.668 29.8659 178.924 29.7084 178.266 29.3917C177.627 29.0873 177.054 28.6577 176.583 28.1282C176.111 27.5987 175.75 26.9801 175.52 26.3086C175.28 25.6228 175.158 24.9008 175.16 24.1739C175.16 23.436 175.279 22.7239 175.52 22.0391C175.75 21.3677 176.111 20.749 176.583 20.2196C177.054 19.6901 177.627 19.2605 178.266 18.956C178.966 18.6305 179.73 18.4684 180.502 18.4818C181.108 18.4818 181.702 18.653 182.283 18.9954Z" fill="white"/>
</g>
<defs>
<clipPath id="clip0_53_170">
<rect width="186.14" height="47.933" fill="white" transform="translate(0.379883 0.0670166)"/>
</clipPath>
</defs>
</svg>
