<svg width="93.5" height="63.5" viewBox="0 0 187 127" fill="none" xmlns="http://www.w3.org/2000/svg">
<path d="M87.5128 0.0471682C121.411 -0.995163 142.916 15.259 154.757 46.6902C161.733 46.6902 169.039 46.6891 176.345 46.6938C176.677 46.694 177.013 46.725 177.34 46.7784C180.668 47.3201 185.403 46.5435 186.04 50.8C186.756 55.5865 181.738 56.2974 178.454 57.0627C164.063 60.4164 149.683 64.0245 135.108 66.34C96.9339 72.4048 58.5719 76.9152 19.83 76.9777C15.0214 76.9854 10.1625 76.6815 5.42653 75.9103C3.48169 75.5936 1.8009 73.6554 0 72.4549C1.54297 70.7399 2.7781 68.1089 4.6823 67.469C12.8412 64.7275 21.1972 62.5726 29.8919 60.0864C30.7152 49.3529 33.5812 38.707 39.832 29.1717C51.0244 12.0983 66.864 2.55915 87.5128 0.0471682ZM71.5224 37.1405C71.2524 42.7547 70.6513 48.3777 70.7999 53.9808C70.9695 60.3749 74.8016 64.1632 80.7528 66.2661C92.2331 70.3228 103.076 65.4231 114.415 64.2598C111.759 61.9512 109.055 60.0486 106.051 59.011C101.198 57.3343 96.1865 56.0553 91.1704 54.9251C85.7376 53.701 85.9263 49.7716 86.1301 45.6191C86.3471 41.1968 89.4409 40.5976 92.7869 40.7268C99.7415 40.9953 106.687 41.4943 114.079 41.9242C114.533 37.9952 115.019 33.7891 115.54 29.2824C104.842 27.4102 94.6829 26.0019 84.3506 27.8377C78.8994 28.8063 74.0649 30.7017 71.5224 37.1405ZM21.6066 66.9174C19.0481 67.5682 16.4739 68.164 13.9358 68.8862C11.6271 69.5432 9.35762 70.3376 7.07086 71.0715C7.1569 71.4681 7.24294 71.8647 7.32898 72.2613C14.9655 72.2613 22.6021 72.2613 30.5055 72.2613C30.3094 69.737 30.1464 67.6396 29.9586 65.2218C27.2206 65.796 24.8189 66.2997 21.6066 66.9174ZM156.155 57.3565C163.715 55.9332 171.276 54.51 178.837 53.0868C178.741 52.4726 178.645 51.8584 178.55 51.2442C170.814 51.2442 163.077 51.2442 155.197 51.2442C155.517 53.2247 155.781 54.8634 156.155 57.3565Z" fill="#FBFBFB"/>
<path d="M78.6603 124.629C55.3141 118.138 36.8172 100.431 32.9758 81.1327C55.6121 79.204 78.2426 77.2758 100.884 75.3467C102.396 83.5638 100.588 86.0854 92.1427 85.7099C85.3998 85.4101 78.7006 84.1269 71.6029 83.2325C70.8506 86.5893 70.0272 90.2627 69.0564 94.5942C82.5393 99.4624 96.008 101.487 109.608 95.6767C115.084 93.3374 116.625 87.9745 117.048 82.4558C117.276 79.4859 117.089 76.4843 117.089 73.042C130.056 70.9149 142.88 68.8113 156.187 66.6285C155.402 79.5689 151.444 91.0234 143.67 100.905C127.076 121.999 105.279 129.471 78.6603 124.629Z" fill="#FCFCFC"/>
<path d="M22.0118 66.8604C24.8188 66.2997 27.2205 65.796 29.9585 65.2217C30.1464 67.6396 30.3093 69.7369 30.5055 72.2612C22.6021 72.2612 14.9655 72.2612 7.32892 72.2612C7.24288 71.8646 7.15684 71.468 7.0708 71.0714C9.35755 70.3376 11.6271 69.5432 13.9357 68.8862C16.4739 68.1639 19.048 67.5682 22.0118 66.8604Z" fill="#161616"/>
<path d="M156.1 56.9293C155.781 54.8634 155.517 53.2247 155.197 51.2442C163.077 51.2442 170.813 51.2442 178.55 51.2442C178.645 51.8584 178.741 52.4726 178.837 53.0868C171.276 54.51 163.715 55.9332 156.1 56.9293Z" fill="#0C0C0C"/>
</svg>
