<svg width="196" height="39" viewBox="0 0 196 39" fill="none" xmlns="http://www.w3.org/2000/svg">
<path d="M58.3687 0.541016C51.8838 0.541016 45.9157 2.02301 41.2297 4.57606V34.1935C45.9163 36.6878 51.8841 38.1722 58.3687 38.1722C64.9158 38.1722 70.8853 36.6878 75.5737 34.1935V23.3932H66.9701V30.1601C64.4013 30.8712 61.6445 31.2837 58.3687 31.2837C55.0945 31.2837 52.3994 30.8712 49.8306 30.1601V8.5541C52.3994 7.83631 55.0945 7.4221 58.3687 7.4221C61.6445 7.4221 64.4012 7.8363 66.9701 8.5541V13.8381H75.5737V4.57542C70.8842 2.02355 64.9144 0.54155 58.3676 0.54155L58.3687 0.541016ZM98.8722 0.541016C92.3901 0.541016 86.3556 2.02205 81.6649 4.51767V34.194C86.3558 36.6882 92.325 38.1726 98.8722 38.1726C105.357 38.1726 111.39 36.6882 116.075 34.194V4.51767C111.385 2.02184 105.416 0.540802 98.8676 0.540802L98.8722 0.541016ZM0.89386 1.5477V34.1379C5.5834 36.6896 11.5517 38.2315 18.0988 38.2315C24.5809 38.2315 30.6178 36.6896 35.3062 34.1379V1.5477H26.7025V30.1589C24.0729 30.87 21.3717 31.7608 18.0988 31.7608C14.8246 31.7608 12.1285 30.87 9.49751 30.1589V1.5477H0.89386ZM121.688 1.5477V37.1032H129.459V11.8754H129.714L146.786 37.1032H155.968V1.5477H148.139V26.7734H147.945L130.868 1.5477H121.688ZM161.542 1.5477V37.1032H169.31V11.8754H169.563L186.639 37.1032H195.821V1.5477H187.992V26.7734H187.798L170.726 1.5477H161.542ZM98.8734 7.42489C102.148 7.42489 104.844 7.83834 107.475 8.55476V30.1586C104.844 30.8697 102.148 31.2843 98.8734 31.2843C95.5991 31.2843 92.9059 30.8697 90.272 30.1586V8.55476C92.9059 7.77949 95.599 7.42489 98.8734 7.42489Z" fill="white"/>
</svg>
